<?xml version="1.0" encoding="UTF-8"?>
<svg version="1.1" xmlns="http://www.w3.org/2000/svg" width="512" height="512">
<path d="M0 0 C4.89045057 3.02009613 8.00296093 6.54357676 10.234375 11.89453125 C10.76388576 14.95692245 10.74243096 17.9412113 10.68847656 21.04272461 C10.6889587 21.94557725 10.68944084 22.84842989 10.68993759 23.7786417 C10.68696858 26.68096365 10.65658614 29.58223858 10.625 32.484375 C10.61911369 34.28421535 10.61503616 36.08406255 10.61279297 37.88391113 C10.59188133 44.53338941 10.53603611 51.18272078 10.484375 57.83203125 C10.401875 72.70265625 10.319375 87.57328125 10.234375 102.89453125 C51.154375 102.89453125 92.074375 102.89453125 134.234375 102.89453125 C133.99714265 73.35135352 133.99714265 73.35135352 133.69384766 43.80883789 C133.66674805 38.07312012 133.66674805 38.07312012 133.66171265 35.3813324 C133.65254596 33.51580704 133.6315404 31.65031552 133.60092163 29.78501892 C133.30467965 10.77476747 133.30467965 10.77476747 138.64950562 4.38279724 C144.66844901 -1.26927027 149.5875921 -1.86997056 157.78125 -1.6171875 C162.96195931 -0.84945795 166.65926317 1.07260207 170.234375 4.89453125 C174.04346986 10.46319637 174.80462585 14.37353523 174.68847656 21.04272461 C174.68906067 21.93132172 174.68964478 22.81991882 174.69024658 23.73544312 C174.68747537 26.65216083 174.65642918 29.56783736 174.625 32.484375 C174.61753418 34.51460716 174.61184286 36.54484655 174.60784912 38.5750885 C174.59261969 43.9033722 174.55336091 49.23121569 174.5090332 54.55932617 C174.4680225 60.00238084 174.44982572 65.44550704 174.4296875 70.88867188 C174.38686418 81.55748445 174.31864536 92.22597116 174.234375 102.89453125 C175.0537706 102.88120758 175.8731662 102.86788391 176.71739197 102.85415649 C184.46991965 102.73353141 192.22198723 102.6423819 199.97521114 102.58365822 C203.96052788 102.55245149 207.94506405 102.51017842 211.92993164 102.44189453 C215.78145997 102.37631461 219.63224145 102.34074519 223.48428535 102.32526779 C224.94786894 102.31424992 226.41141534 102.29273465 227.87467766 102.26015091 C235.60911789 102.09489747 241.94859646 102.2259237 248.42115784 106.91903687 C253.99009998 112.98638178 254.82686336 117.94181025 254.78369141 125.90966797 C254.79391327 126.89109772 254.80413513 127.87252747 254.81466675 128.88369751 C254.8423689 132.11412238 254.8405523 135.34368952 254.8359375 138.57421875 C254.84371657 140.82952183 254.85238698 143.084822 254.86190796 145.34011841 C254.87681315 150.06261704 254.87626419 154.7848166 254.86572266 159.50732422 C254.85413764 165.54555584 254.88799154 171.58255962 254.934412 177.6205883 C254.9639424 182.27734479 254.96562262 186.93380748 254.95939255 191.59064102 C254.96041626 193.81609656 254.97084091 196.04156912 254.99101639 198.26693344 C255.01582139 201.38562467 255.00212254 204.50194929 254.97900391 207.62060547 C254.99429138 208.531026 255.00957886 209.44144653 255.02532959 210.37945557 C254.91310588 217.26312757 252.67612698 221.66946735 248.234375 226.89453125 C242.86706769 231.47910624 237.64301059 231.6208349 230.6875 231.40625 C225.50679069 230.63852045 221.80948683 228.71646043 218.234375 224.89453125 C204.65711901 201.13433326 214.234375 170.26036559 214.234375 142.89453125 C120.514375 142.89453125 26.794375 142.89453125 -69.765625 142.89453125 C-69.641875 170.40828125 -69.518125 197.92203125 -69.390625 226.26953125 C-69.35662598 234.94927246 -69.32262695 243.62901367 -69.28759766 252.57177734 C-69.24767796 260.3687356 -69.24767796 260.3687356 -69.20516968 268.16567993 C-69.18634138 271.63190351 -69.17296586 275.09810158 -69.16293335 278.56436157 C-69.14993359 282.99343211 -69.12749768 287.42236284 -69.09839129 291.85135579 C-69.08931766 293.4720232 -69.08348654 295.09271299 -69.08137059 296.71340442 C-69.06785942 315.86982807 -69.06785942 315.86982807 -59.765625 332.03515625 C-48.39387751 342.16767485 -33.65889118 348.53747178 -20.08227539 355.14550781 C4.23348916 367.00726762 24.00711723 382.97415429 34.33203125 408.62109375 C36.56377683 415.1606273 36.234375 419.52817803 36.234375 426.89453125 C59.994375 426.89453125 83.754375 426.89453125 108.234375 426.89453125 C108.234375 423.26453125 108.234375 419.63453125 108.234375 415.89453125 C112.33078566 395.53598782 126.76587074 378.68354325 143.44970703 367.08105469 C152.23574685 361.23972042 161.72764331 356.6171747 171.171875 351.95703125 C195.36243767 341.08649539 195.36243767 341.08649539 211.5859375 321.54296875 C212.41003904 318.17706006 212.74490986 314.83975832 213.109375 311.39453125 C214.10168763 302.79161217 216.69723959 297.91583442 223.234375 292.33203125 C228.79977339 289.67300758 235.2779747 290.01185202 241.234375 290.89453125 C246.92091032 293.16753901 250.51599703 296.44210296 253.44482422 301.86694336 C254.91556892 305.64385576 254.82312176 309.38819384 254.734375 313.39453125 C254.71624756 314.71022095 254.71624756 314.71022095 254.69775391 316.05249023 C254.12953802 334.96719168 246.11356502 350.49990285 232.515625 363.4921875 C217.32625811 376.70122027 198.59578281 385.11791135 180.77734375 394.15625 C169.06604457 400.15370205 155.04248007 408.233791 150.53125 421.3359375 C148.46831851 428.75291174 148.86527333 436.35680626 148.97070312 443.99414062 C148.89779455 450.80533681 148.15626223 455.39003846 144.20629883 461.00756836 C139.06484628 465.92749986 134.83981029 467.35015943 127.88526917 467.34771729 C126.98082565 467.32707214 126.07638214 467.306427 125.14453125 467.28515625 C124.20000595 467.27949646 123.25548065 467.27383667 122.28233337 467.26800537 C119.28664944 467.24574196 116.29219305 467.19556456 113.296875 467.14453125 C111.25717882 467.12445327 109.21746376 467.10620478 107.17773438 467.08984375 C102.19614674 467.04591008 97.21546848 466.97695245 92.234375 466.89453125 C92.2657959 467.78648193 92.2972168 468.67843262 92.32958984 469.59741211 C92.43262042 472.94677517 92.5074284 476.29442559 92.56396484 479.64477539 C92.5939094 481.08710505 92.63468233 482.52925619 92.68701172 483.97094727 C92.97281269 492.05463153 93.06359509 498.57001592 87.82666016 505.24023438 C82.94763684 510.30927178 79.26328563 511.17062394 72.359375 511.51953125 C66.53621152 511.33988046 62.81319274 510.27309885 58.1015625 506.890625 C51.03518064 499.33639669 51.74990853 491.76370196 51.984375 481.95703125 C52.00446523 480.4954671 52.02271156 479.03387639 52.0390625 477.57226562 C52.08287164 474.01246351 52.15175954 470.45366871 52.234375 466.89453125 C50.35117554 466.9416626 50.35117554 466.9416626 48.42993164 466.98974609 C43.73927824 467.09894925 39.04873546 467.16744608 34.35717773 467.22412109 C32.33289651 467.25415829 30.30874396 467.29500143 28.28491211 467.34716797 C25.36279445 467.4205627 22.44240752 467.45411809 19.51953125 467.48046875 C18.62541031 467.51143646 17.73128937 467.54240417 16.81007385 467.5743103 C9.87292511 467.577965 5.48146898 465.39188614 0.234375 460.89453125 C-4.87291835 454.74525533 -4.32391144 448.32234007 -4.328125 440.58203125 C-4.26843517 424.89730386 -4.26843517 424.89730386 -11.890625 411.70703125 C-12.59445313 410.95035156 -13.29828125 410.19367188 -14.0234375 409.4140625 C-20.98152119 403.02095142 -28.20636754 398.30956025 -36.640625 394.08203125 C-38.6784007 393.03648812 -40.71616088 391.99091474 -42.75390625 390.9453125 C-45.65220388 389.47189177 -48.55233938 388.00223913 -51.45458984 386.53662109 C-74.45210862 374.89426529 -97.50905115 360.25193355 -106.765625 334.89453125 C-107.0186737 334.22101686 -107.27172239 333.54750248 -107.53243923 332.85357857 C-110.63976655 323.30354711 -110.21018254 313.620825 -110.20141602 303.69482422 C-110.21040425 301.65856374 -110.22061493 299.62230835 -110.23194885 297.58605957 C-110.25833412 292.08212233 -110.26547716 286.57832519 -110.26739621 281.07433081 C-110.26953416 277.63202949 -110.27594905 274.18976339 -110.28388786 270.74747086 C-110.31159593 258.72892253 -110.32389815 246.71047374 -110.3215332 234.69189453 C-110.31972874 223.50189784 -110.35143874 212.312334 -110.39876419 201.12244689 C-110.43800884 191.49921346 -110.4540843 181.87612152 -110.45216697 172.25280869 C-110.451403 166.51192918 -110.45990343 160.77143535 -110.49170113 155.03063583 C-110.52077874 149.63443937 -110.5209595 144.23899672 -110.49915123 138.84277344 C-110.49601863 136.86631288 -110.50307344 134.88980506 -110.5212326 132.91342545 C-110.67615538 114.88052706 -110.67615538 114.88052706 -105.33729553 108.41009331 C-98.24372827 101.56976566 -90.75114137 102.36648896 -81.42578125 102.50390625 C-79.9336371 102.51137609 -78.44148307 102.51706551 -76.94932556 102.52105713 C-73.04137603 102.53625528 -69.1340308 102.5754854 -65.22631836 102.61987305 C-61.23104016 102.66095246 -57.23566335 102.67909504 -53.24023438 102.69921875 C-45.4150905 102.74198659 -37.59044275 102.81016561 -29.765625 102.89453125 C-29.77894867 101.77446182 -29.79227234 100.6543924 -29.80599976 99.50038147 C-29.92785896 88.92240811 -30.01768281 78.34457798 -30.07649803 67.76606083 C-30.10775284 62.32803557 -30.15011911 56.89057892 -30.21826172 51.45288086 C-30.28366236 46.20086043 -30.31937502 40.94938541 -30.33488846 35.69698906 C-30.34593765 33.697549 -30.36751452 31.69813733 -30.40000534 29.69893074 C-30.69520741 10.77463241 -30.69520741 10.77463241 -25.35049438 4.38279724 C-18.37495424 -2.16755906 -9.07122667 -3.62592817 0 0 Z " fill="#2FC8FE" transform="translate(183.765625,1.10546875)"/>
<path d="M0 0 C1.20184937 -0.00619858 2.40369873 -0.01239716 3.64196777 -0.01878357 C6.18041169 -0.02588058 8.71890216 -0.02270991 11.25732422 -0.01000977 C15.14247178 0.00385707 19.02521201 -0.03022344 22.91015625 -0.06835938 C25.37760476 -0.06931055 27.84505628 -0.06745184 30.3125 -0.0625 C31.47406616 -0.07575821 32.63563232 -0.08901642 33.83239746 -0.10267639 C42.79338088 0.00086998 42.79338088 0.00086998 45.86523438 2.98071289 C48.77323847 7.17900506 49.2981493 10.51159074 48.65625 15.56640625 C47.65446577 18.2905075 46.24192631 20.66534767 44.71875 23.12890625 C44.11619385 24.1494812 44.11619385 24.1494812 43.50146484 25.19067383 C42.23577965 27.32599453 40.94683115 29.44606163 39.65625 31.56640625 C38.82260535 32.96388256 37.99054495 34.36230529 37.16015625 35.76171875 C35.0110015 39.37488482 32.83655964 42.97196003 30.65625 46.56640625 C29.65565191 48.23271391 28.65554715 49.89931807 27.65625 51.56640625 C28.26933014 51.57005188 28.88241028 51.57369751 29.5140686 51.57745361 C35.90608366 51.61932578 42.29738384 51.6887047 48.68896484 51.77392578 C51.07300663 51.8021182 53.45714158 51.82334128 55.84130859 51.83740234 C59.27229452 51.85885494 62.70216224 51.90551989 66.1328125 51.95703125 C67.19553375 51.95825989 68.258255 51.95948853 69.35317993 51.96075439 C75.41472281 52.08020989 79.05522792 52.49306301 83.65625 56.56640625 C86.95768589 61.07836863 87.03592536 65.38334308 87.15234375 70.78515625 C85.87408705 77.95144577 79.77144104 82.56295958 74.65625 87.25390625 C73.51893433 88.31001099 73.51893433 88.31001099 72.35864258 89.38745117 C70.13036276 91.45355427 67.89454089 93.51115919 65.65625 95.56640625 C64.53506326 96.60015958 63.41395896 97.63400232 62.29296875 98.66796875 C59.42242289 101.30996945 56.5397293 103.93852623 53.65625 106.56640625 C51.67641857 108.37818833 49.69708187 110.19048905 47.71875 112.00390625 C47.2252002 112.45620605 46.73165039 112.90850586 46.22314453 113.37451172 C40.90233982 118.25321127 35.59948208 123.15130527 30.29736328 128.05029297 C27.04385612 131.05598763 23.78861124 134.05980019 20.53369141 137.06396484 C17.81225027 139.57587547 15.09123251 142.08824154 12.37109375 144.6015625 C9.67334459 147.09404378 6.97382344 149.58459464 4.2734375 152.07421875 C3.17638083 153.08647877 2.08005 154.09952588 0.984375 155.11328125 C-0.64428682 156.62017397 -2.27507367 158.12473639 -3.90625 159.62890625 C-4.85628906 160.50675781 -5.80632812 161.38460937 -6.78515625 162.2890625 C-13.18224598 167.98296069 -13.18224598 167.98296069 -17.96875 167.87890625 C-18.74476563 167.87503906 -19.52078125 167.87117187 -20.3203125 167.8671875 C-22.34375 167.56640625 -22.34375 167.56640625 -24.34375 165.56640625 C-25.14666004 159.18993687 -23.03497508 155.00509566 -20.1796875 149.51953125 C-19.74999664 148.6676825 -19.32030579 147.81583374 -18.87759399 146.93817139 C-17.50434018 144.2240669 -16.11176613 141.52041124 -14.71875 138.81640625 C-13.80474079 137.01495598 -12.89196816 135.21287773 -11.98046875 133.41015625 C-7.57299875 124.71982598 -3.10114737 116.07138765 1.65625 107.56640625 C1.10581024 107.56054001 0.55537048 107.55467377 -0.01174927 107.54862976 C-5.75491189 107.48456022 -11.49752116 107.40010601 -17.24023438 107.30395508 C-19.3817616 107.27075687 -21.52337524 107.24270911 -23.66503906 107.2199707 C-26.74842054 107.18633121 -29.83101369 107.13400971 -32.9140625 107.078125 C-33.86741486 107.07173508 -34.82076721 107.06534515 -35.80300903 107.0587616 C-42.52148824 106.91107753 -46.81890048 105.73895118 -52.03125 101.25390625 C-56.73401286 95.7885332 -58.16548635 91.13699608 -57.921875 83.9765625 C-56.87032887 77.77386136 -53.79634473 72.65871812 -50.78662109 67.22021484 C-48.781114 63.5315749 -46.87869325 59.79211474 -44.96748352 56.05397034 C-38.06160818 42.55211083 -31.00397628 29.13666962 -23.62011719 15.88867188 C-22.74994114 14.30544414 -21.90243456 12.70959521 -21.07519531 11.10351562 C-20.66108398 10.31267578 -20.24697266 9.52183594 -19.8203125 8.70703125 C-19.46275879 8.00610352 -19.10520508 7.30517578 -18.73681641 6.58300781 C-13.77869873 -0.59435847 -8.08509859 -0.03452324 0 0 Z " fill="#35C2FE" transform="translate(242.34375,185.43359375)"/>
</svg>
