<?xml version="1.0" encoding="UTF-8"?>
<svg version="1.1" xmlns="http://www.w3.org/2000/svg" width="46" height="100">
<path d="M0 0 C0.33 0 0.66 0 1 0 C1 15.18 1 30.36 1 46 C7.6 46 14.2 46 21 46 C20.27653419 50.34079486 19.78476852 52.95487364 18.09814453 56.7644043 C17.51215988 58.10060066 17.51215988 58.10060066 16.91433716 59.46379089 C16.49143402 60.40773209 16.06853088 61.35167328 15.6328125 62.32421875 C15.19742157 63.30743607 14.76203064 64.29065338 14.31344604 65.30366516 C13.3938637 67.3752711 12.47078277 69.44532711 11.54443359 71.51391602 C10.12724543 74.68247965 8.72504994 77.85737976 7.32421875 81.03320312 C6.4279758 83.04727238 5.53086973 85.06095781 4.6328125 87.07421875 C4.21395782 88.02423264 3.79510315 88.97424652 3.36355591 89.95304871 C2.96659515 90.8343898 2.5696344 91.7157309 2.16064453 92.6237793 C1.81502472 93.3984404 1.46940491 94.1731015 1.11331177 94.97123718 C-0 97 -0 97 -3 100 C-3 87.79 -3 75.58 -3 63 C-10.26 63 -17.52 63 -25 63 C-24.2935711 58.76142662 -23.78224597 56.02811211 -22.20581055 52.25488281 C-21.83840256 51.36665833 -21.47099457 50.47843384 -21.092453 49.56329346 C-20.49561455 48.14751007 -20.49561455 48.14751007 -19.88671875 46.703125 C-19.47589554 45.71431335 -19.06507233 44.72550171 -18.64179993 43.70672607 C-17.32963931 40.55197048 -16.00881863 37.40092939 -14.6875 34.25 C-13.37886424 31.11255845 -12.07199793 27.97438425 -10.76533508 24.83612061 C-9.9532616 22.88758706 -9.13970615 20.93967021 -8.3243866 18.99249268 C-6.09073802 13.65331959 -3.91468812 8.29753019 -1.81404114 2.90447998 C-1 1 -1 1 0 0 Z " fill="#FF796C" transform="translate(25,0)"/>
</svg>
